<svg width="311" height="311" viewBox="0 0 311 311" fill="none" xmlns="http://www.w3.org/2000/svg">
<rect width="311" height="311" fill="white"/>
<path fill-rule="evenodd" clip-rule="evenodd" d="M141.5 101V97H134V104.5H138V101H141.5ZM138 133H134V125H138V133ZM190.5 101V97H198V104.5H194V101H190.5ZM198 161H190.5V157H194V153.5H198V161ZM170 157H162V161H170V157ZM176.5 157H186V161H176.5V157ZM194 139.5V149H198V139.5H194ZM194 133V125H198V133H194ZM194 109V118.5H198V109H194ZM186 101H176.5V97H186V101ZM162 101H170V97H162V101ZM155.5 101H146V97H155.5V101ZM138 118.5V109H134V118.5H138Z" fill="#E8EBFF"/>
<path d="M149.069 172.215C148.771 171.493 149.492 170.771 150.213 171.069L165.558 177.419C166.19 177.68 166.292 178.533 165.741 178.937L162.097 181.608L166.872 186.39C167.043 186.562 167.043 186.839 166.872 187.011L165.014 188.872C164.843 189.043 164.565 189.043 164.394 188.872L159.615 184.085L156.925 187.767C156.521 188.32 155.67 188.217 155.409 187.584L149.069 172.215Z" fill="#E8EBFF"/>
<path d="M117 135C115.343 135 114 136.343 114 138V178C114 179.657 115.343 181 117 181H146.193C146.691 181 146.8 180.39 146.61 179.93L145.415 177.032C145.407 177.013 145.389 177 145.368 177H118V139H156V169.211C156 169.232 156.013 169.25 156.033 169.258L158.926 170.456C159.387 170.646 160 170.538 160 170.038V138C160 136.343 158.657 135 157 135H117Z" fill="#E8EBFF"/>
<path d="M64.207 211H62.1289L62.1426 209.927H64.207C64.918 209.927 65.5104 209.779 65.9844 209.482C66.4583 209.182 66.8138 208.762 67.0508 208.225C67.2923 207.682 67.4131 207.049 67.4131 206.324V205.716C67.4131 205.146 67.3447 204.64 67.208 204.198C67.0713 203.752 66.8708 203.376 66.6064 203.07C66.3421 202.76 66.0186 202.526 65.6357 202.366C65.2575 202.207 64.8223 202.127 64.3301 202.127H62.0879V201.047H64.3301C64.9818 201.047 65.5765 201.156 66.1143 201.375C66.652 201.589 67.1146 201.901 67.502 202.312C67.8939 202.717 68.1947 203.209 68.4043 203.788C68.6139 204.362 68.7188 205.009 68.7188 205.729V206.324C68.7188 207.044 68.6139 207.694 68.4043 208.272C68.1947 208.847 67.8916 209.337 67.4951 209.742C67.1032 210.148 66.6292 210.46 66.0732 210.679C65.5218 210.893 64.8997 211 64.207 211ZM62.833 201.047V211H61.5137V201.047H62.833ZM71.7744 204.766V211H70.5098V203.604H71.7402L71.7744 204.766ZM74.085 203.562L74.0781 204.738C73.9733 204.715 73.873 204.702 73.7773 204.697C73.6862 204.688 73.5814 204.684 73.4629 204.684C73.1712 204.684 72.9137 204.729 72.6904 204.82C72.4671 204.911 72.278 205.039 72.123 205.203C71.9681 205.367 71.8451 205.563 71.7539 205.791C71.6673 206.014 71.6104 206.26 71.583 206.529L71.2275 206.734C71.2275 206.288 71.2708 205.868 71.3574 205.477C71.4486 205.085 71.5876 204.738 71.7744 204.438C71.9613 204.132 72.1982 203.895 72.4854 203.727C72.777 203.553 73.1234 203.467 73.5244 203.467C73.6156 203.467 73.7204 203.478 73.8389 203.501C73.9574 203.519 74.0394 203.54 74.085 203.562ZM79.3418 209.735V205.928C79.3418 205.636 79.2826 205.383 79.1641 205.169C79.0501 204.95 78.877 204.782 78.6445 204.663C78.4121 204.545 78.125 204.485 77.7832 204.485C77.4642 204.485 77.1839 204.54 76.9424 204.649C76.7054 204.759 76.5186 204.902 76.3818 205.08C76.2497 205.258 76.1836 205.449 76.1836 205.654H74.9189C74.9189 205.39 74.9873 205.128 75.124 204.868C75.2607 204.608 75.4567 204.374 75.7119 204.164C75.9717 203.95 76.2816 203.781 76.6416 203.658C77.0062 203.531 77.4118 203.467 77.8584 203.467C78.3962 203.467 78.8701 203.558 79.2803 203.74C79.695 203.923 80.0186 204.198 80.251 204.567C80.488 204.932 80.6064 205.39 80.6064 205.941V209.387C80.6064 209.633 80.627 209.895 80.668 210.173C80.7135 210.451 80.7796 210.69 80.8662 210.891V211H79.5469C79.4831 210.854 79.4329 210.66 79.3965 210.419C79.36 210.173 79.3418 209.945 79.3418 209.735ZM79.5605 206.516L79.5742 207.404H78.2959C77.9359 207.404 77.6146 207.434 77.332 207.493C77.0495 207.548 76.8125 207.632 76.6211 207.746C76.4297 207.86 76.2839 208.004 76.1836 208.177C76.0833 208.345 76.0332 208.544 76.0332 208.771C76.0332 209.004 76.0856 209.216 76.1904 209.407C76.2952 209.599 76.4525 209.751 76.6621 209.865C76.8763 209.975 77.1383 210.029 77.4482 210.029C77.8356 210.029 78.1774 209.947 78.4736 209.783C78.7699 209.619 79.0046 209.419 79.1777 209.182C79.3555 208.945 79.4512 208.715 79.4648 208.491L80.0049 209.1C79.973 209.291 79.8864 209.503 79.7451 209.735C79.6038 209.968 79.4147 210.191 79.1777 210.405C78.9453 210.615 78.6673 210.79 78.3438 210.932C78.0247 211.068 77.6647 211.137 77.2637 211.137C76.7624 211.137 76.3226 211.039 75.9443 210.843C75.5706 210.647 75.279 210.385 75.0693 210.057C74.8643 209.724 74.7617 209.353 74.7617 208.942C74.7617 208.546 74.8392 208.197 74.9941 207.896C75.1491 207.591 75.3724 207.338 75.6641 207.138C75.9557 206.933 76.3066 206.778 76.7168 206.673C77.127 206.568 77.585 206.516 78.0908 206.516H79.5605ZM87.3877 203.604H88.5361V210.843C88.5361 211.494 88.404 212.05 88.1396 212.511C87.8753 212.971 87.5062 213.32 87.0322 213.557C86.5628 213.798 86.0205 213.919 85.4053 213.919C85.1501 213.919 84.8493 213.878 84.5029 213.796C84.1611 213.718 83.8239 213.584 83.4912 213.393C83.1631 213.206 82.8874 212.953 82.6641 212.634L83.3271 211.882C83.637 212.256 83.9606 212.515 84.2979 212.661C84.6396 212.807 84.9769 212.88 85.3096 212.88C85.7106 212.88 86.057 212.805 86.3486 212.654C86.6403 212.504 86.8659 212.281 87.0254 211.984C87.1895 211.693 87.2715 211.333 87.2715 210.904V205.23L87.3877 203.604ZM82.2949 207.384V207.24C82.2949 206.675 82.361 206.162 82.4932 205.702C82.6299 205.237 82.8236 204.839 83.0742 204.506C83.3294 204.173 83.637 203.918 83.9971 203.74C84.3571 203.558 84.7627 203.467 85.2139 203.467C85.6787 203.467 86.0843 203.549 86.4307 203.713C86.7816 203.872 87.0778 204.107 87.3193 204.417C87.5654 204.722 87.7591 205.091 87.9004 205.524C88.0417 205.957 88.1396 206.447 88.1943 206.994V207.623C88.1442 208.165 88.0462 208.653 87.9004 209.086C87.7591 209.519 87.5654 209.888 87.3193 210.193C87.0778 210.499 86.7816 210.733 86.4307 210.897C86.0798 211.057 85.6696 211.137 85.2002 211.137C84.7581 211.137 84.3571 211.043 83.9971 210.856C83.6416 210.67 83.3363 210.408 83.0811 210.07C82.8258 209.733 82.6299 209.337 82.4932 208.881C82.361 208.421 82.2949 207.922 82.2949 207.384ZM83.5596 207.24V207.384C83.5596 207.753 83.596 208.099 83.6689 208.423C83.7464 208.746 83.8626 209.031 84.0176 209.277C84.1771 209.523 84.3799 209.717 84.626 209.858C84.8721 209.995 85.166 210.063 85.5078 210.063C85.9271 210.063 86.2734 209.975 86.5469 209.797C86.8203 209.619 87.0368 209.384 87.1963 209.093C87.3604 208.801 87.488 208.484 87.5791 208.143V206.495C87.529 206.244 87.4515 206.003 87.3467 205.771C87.2464 205.534 87.1143 205.324 86.9502 205.142C86.7907 204.955 86.5924 204.807 86.3555 204.697C86.1185 204.588 85.8405 204.533 85.5215 204.533C85.1751 204.533 84.8766 204.606 84.626 204.752C84.3799 204.893 84.1771 205.089 84.0176 205.34C83.8626 205.586 83.7464 205.873 83.6689 206.201C83.596 206.525 83.5596 206.871 83.5596 207.24ZM96.8896 210.098C97.1904 210.098 97.4684 210.036 97.7236 209.913C97.9788 209.79 98.1885 209.621 98.3525 209.407C98.5166 209.188 98.61 208.94 98.6328 208.662H99.8359C99.8132 209.1 99.665 209.507 99.3916 209.886C99.1227 210.259 98.7695 210.562 98.332 210.795C97.8945 211.023 97.4137 211.137 96.8896 211.137C96.3337 211.137 95.8483 211.039 95.4336 210.843C95.0234 210.647 94.6816 210.378 94.4082 210.036C94.1393 209.694 93.9365 209.302 93.7998 208.86C93.6676 208.414 93.6016 207.942 93.6016 207.445V207.158C93.6016 206.661 93.6676 206.192 93.7998 205.75C93.9365 205.303 94.1393 204.909 94.4082 204.567C94.6816 204.226 95.0234 203.957 95.4336 203.761C95.8483 203.565 96.3337 203.467 96.8896 203.467C97.4684 203.467 97.9743 203.585 98.4072 203.822C98.8402 204.055 99.1797 204.374 99.4258 204.779C99.6764 205.18 99.8132 205.636 99.8359 206.146H98.6328C98.61 205.841 98.5234 205.565 98.373 205.319C98.2272 205.073 98.0267 204.877 97.7715 204.731C97.5208 204.581 97.2269 204.506 96.8896 204.506C96.5023 204.506 96.1764 204.583 95.9121 204.738C95.6523 204.889 95.445 205.094 95.29 205.354C95.1396 205.609 95.0303 205.894 94.9619 206.208C94.8981 206.518 94.8662 206.835 94.8662 207.158V207.445C94.8662 207.769 94.8981 208.088 94.9619 208.402C95.0257 208.717 95.1328 209.002 95.2832 209.257C95.4382 209.512 95.6455 209.717 95.9053 209.872C96.1696 210.022 96.4977 210.098 96.8896 210.098ZM100.923 207.384V207.227C100.923 206.693 101 206.199 101.155 205.743C101.31 205.283 101.534 204.884 101.825 204.547C102.117 204.205 102.47 203.941 102.885 203.754C103.299 203.562 103.764 203.467 104.279 203.467C104.799 203.467 105.266 203.562 105.681 203.754C106.1 203.941 106.455 204.205 106.747 204.547C107.043 204.884 107.269 205.283 107.424 205.743C107.579 206.199 107.656 206.693 107.656 207.227V207.384C107.656 207.917 107.579 208.411 107.424 208.867C107.269 209.323 107.043 209.722 106.747 210.063C106.455 210.401 106.102 210.665 105.688 210.856C105.277 211.043 104.812 211.137 104.293 211.137C103.773 211.137 103.306 211.043 102.892 210.856C102.477 210.665 102.121 210.401 101.825 210.063C101.534 209.722 101.31 209.323 101.155 208.867C101 208.411 100.923 207.917 100.923 207.384ZM102.188 207.227V207.384C102.188 207.753 102.231 208.102 102.317 208.43C102.404 208.753 102.534 209.04 102.707 209.291C102.885 209.542 103.106 209.74 103.37 209.886C103.634 210.027 103.942 210.098 104.293 210.098C104.639 210.098 104.942 210.027 105.202 209.886C105.466 209.74 105.685 209.542 105.858 209.291C106.032 209.04 106.161 208.753 106.248 208.43C106.339 208.102 106.385 207.753 106.385 207.384V207.227C106.385 206.862 106.339 206.518 106.248 206.194C106.161 205.866 106.029 205.577 105.852 205.326C105.678 205.071 105.46 204.87 105.195 204.725C104.936 204.579 104.63 204.506 104.279 204.506C103.933 204.506 103.628 204.579 103.363 204.725C103.104 204.87 102.885 205.071 102.707 205.326C102.534 205.577 102.404 205.866 102.317 206.194C102.231 206.518 102.188 206.862 102.188 207.227ZM110.5 205.073V211H109.229V203.604H110.432L110.5 205.073ZM110.24 207.021L109.652 207.001C109.657 206.495 109.723 206.028 109.851 205.6C109.978 205.167 110.167 204.791 110.418 204.472C110.669 204.153 110.981 203.907 111.354 203.733C111.728 203.556 112.161 203.467 112.653 203.467C113 203.467 113.319 203.517 113.61 203.617C113.902 203.713 114.155 203.866 114.369 204.075C114.583 204.285 114.75 204.554 114.868 204.882C114.987 205.21 115.046 205.606 115.046 206.071V211H113.781V206.133C113.781 205.745 113.715 205.436 113.583 205.203C113.455 204.971 113.273 204.802 113.036 204.697C112.799 204.588 112.521 204.533 112.202 204.533C111.828 204.533 111.516 204.599 111.266 204.731C111.015 204.864 110.814 205.046 110.664 205.278C110.514 205.511 110.404 205.777 110.336 206.078C110.272 206.374 110.24 206.689 110.24 207.021ZM115.032 206.324L114.185 206.584C114.189 206.178 114.255 205.789 114.383 205.415C114.515 205.041 114.704 204.709 114.95 204.417C115.201 204.125 115.508 203.895 115.873 203.727C116.238 203.553 116.655 203.467 117.124 203.467C117.521 203.467 117.871 203.519 118.177 203.624C118.487 203.729 118.746 203.891 118.956 204.109C119.17 204.324 119.332 204.599 119.441 204.937C119.551 205.274 119.605 205.675 119.605 206.14V211H118.334V206.126C118.334 205.711 118.268 205.39 118.136 205.162C118.008 204.93 117.826 204.768 117.589 204.677C117.356 204.581 117.078 204.533 116.755 204.533C116.477 204.533 116.231 204.581 116.017 204.677C115.802 204.772 115.622 204.905 115.477 205.073C115.331 205.237 115.219 205.426 115.142 205.641C115.069 205.855 115.032 206.083 115.032 206.324ZM122.784 205.025V213.844H121.513V203.604H122.675L122.784 205.025ZM127.768 207.24V207.384C127.768 207.922 127.704 208.421 127.576 208.881C127.449 209.337 127.262 209.733 127.016 210.07C126.774 210.408 126.476 210.67 126.12 210.856C125.765 211.043 125.357 211.137 124.896 211.137C124.427 211.137 124.012 211.059 123.652 210.904C123.292 210.749 122.987 210.524 122.736 210.228C122.486 209.931 122.285 209.576 122.135 209.161C121.989 208.746 121.889 208.279 121.834 207.76V206.994C121.889 206.447 121.991 205.957 122.142 205.524C122.292 205.091 122.49 204.722 122.736 204.417C122.987 204.107 123.29 203.872 123.646 203.713C124.001 203.549 124.411 203.467 124.876 203.467C125.341 203.467 125.753 203.558 126.113 203.74C126.473 203.918 126.776 204.173 127.022 204.506C127.269 204.839 127.453 205.237 127.576 205.702C127.704 206.162 127.768 206.675 127.768 207.24ZM126.496 207.384V207.24C126.496 206.871 126.457 206.525 126.38 206.201C126.302 205.873 126.182 205.586 126.018 205.34C125.858 205.089 125.653 204.893 125.402 204.752C125.152 204.606 124.853 204.533 124.507 204.533C124.188 204.533 123.91 204.588 123.673 204.697C123.44 204.807 123.242 204.955 123.078 205.142C122.914 205.324 122.78 205.534 122.675 205.771C122.575 206.003 122.499 206.244 122.449 206.495V208.266C122.54 208.585 122.668 208.885 122.832 209.168C122.996 209.446 123.215 209.672 123.488 209.845C123.762 210.013 124.106 210.098 124.521 210.098C124.862 210.098 125.156 210.027 125.402 209.886C125.653 209.74 125.858 209.542 126.018 209.291C126.182 209.04 126.302 208.753 126.38 208.43C126.457 208.102 126.496 207.753 126.496 207.384ZM129.046 207.384V207.227C129.046 206.693 129.123 206.199 129.278 205.743C129.433 205.283 129.657 204.884 129.948 204.547C130.24 204.205 130.593 203.941 131.008 203.754C131.423 203.562 131.887 203.467 132.402 203.467C132.922 203.467 133.389 203.562 133.804 203.754C134.223 203.941 134.578 204.205 134.87 204.547C135.166 204.884 135.392 205.283 135.547 205.743C135.702 206.199 135.779 206.693 135.779 207.227V207.384C135.779 207.917 135.702 208.411 135.547 208.867C135.392 209.323 135.166 209.722 134.87 210.063C134.578 210.401 134.225 210.665 133.811 210.856C133.4 211.043 132.936 211.137 132.416 211.137C131.896 211.137 131.429 211.043 131.015 210.856C130.6 210.665 130.244 210.401 129.948 210.063C129.657 209.722 129.433 209.323 129.278 208.867C129.123 208.411 129.046 207.917 129.046 207.384ZM130.311 207.227V207.384C130.311 207.753 130.354 208.102 130.44 208.43C130.527 208.753 130.657 209.04 130.83 209.291C131.008 209.542 131.229 209.74 131.493 209.886C131.757 210.027 132.065 210.098 132.416 210.098C132.762 210.098 133.065 210.027 133.325 209.886C133.59 209.74 133.808 209.542 133.981 209.291C134.155 209.04 134.285 208.753 134.371 208.43C134.462 208.102 134.508 207.753 134.508 207.384V207.227C134.508 206.862 134.462 206.518 134.371 206.194C134.285 205.866 134.152 205.577 133.975 205.326C133.801 205.071 133.583 204.87 133.318 204.725C133.059 204.579 132.753 204.506 132.402 204.506C132.056 204.506 131.751 204.579 131.486 204.725C131.227 204.87 131.008 205.071 130.83 205.326C130.657 205.577 130.527 205.866 130.44 206.194C130.354 206.518 130.311 206.862 130.311 207.227ZM138.63 205.183V211H137.365V203.604H138.562L138.63 205.183ZM138.329 207.021L137.803 207.001C137.807 206.495 137.882 206.028 138.028 205.6C138.174 205.167 138.379 204.791 138.644 204.472C138.908 204.153 139.222 203.907 139.587 203.733C139.956 203.556 140.364 203.467 140.811 203.467C141.175 203.467 141.503 203.517 141.795 203.617C142.087 203.713 142.335 203.868 142.54 204.082C142.75 204.296 142.909 204.574 143.019 204.916C143.128 205.253 143.183 205.666 143.183 206.153V211H141.911V206.14C141.911 205.752 141.854 205.442 141.74 205.21C141.626 204.973 141.46 204.802 141.241 204.697C141.022 204.588 140.754 204.533 140.435 204.533C140.12 204.533 139.833 204.599 139.573 204.731C139.318 204.864 139.097 205.046 138.91 205.278C138.728 205.511 138.584 205.777 138.479 206.078C138.379 206.374 138.329 206.689 138.329 207.021ZM148.173 211.137C147.658 211.137 147.191 211.05 146.771 210.877C146.357 210.699 145.999 210.451 145.698 210.132C145.402 209.813 145.174 209.435 145.015 208.997C144.855 208.56 144.775 208.081 144.775 207.562V207.274C144.775 206.673 144.864 206.137 145.042 205.668C145.22 205.194 145.461 204.793 145.767 204.465C146.072 204.137 146.418 203.888 146.806 203.72C147.193 203.551 147.594 203.467 148.009 203.467C148.537 203.467 148.993 203.558 149.376 203.74C149.763 203.923 150.08 204.178 150.326 204.506C150.572 204.829 150.755 205.212 150.873 205.654C150.992 206.092 151.051 206.57 151.051 207.09V207.657H145.527V206.625H149.786V206.529C149.768 206.201 149.7 205.882 149.581 205.572C149.467 205.262 149.285 205.007 149.034 204.807C148.784 204.606 148.442 204.506 148.009 204.506C147.722 204.506 147.457 204.567 147.216 204.69C146.974 204.809 146.767 204.987 146.594 205.224C146.421 205.461 146.286 205.75 146.19 206.092C146.095 206.434 146.047 206.828 146.047 207.274V207.562C146.047 207.912 146.095 208.243 146.19 208.553C146.291 208.858 146.434 209.127 146.621 209.359C146.812 209.592 147.043 209.774 147.312 209.906C147.585 210.038 147.895 210.104 148.241 210.104C148.688 210.104 149.066 210.013 149.376 209.831C149.686 209.649 149.957 209.405 150.189 209.1L150.955 209.708C150.796 209.95 150.593 210.18 150.347 210.398C150.101 210.617 149.798 210.795 149.438 210.932C149.082 211.068 148.66 211.137 148.173 211.137ZM153.792 205.183V211H152.527V203.604H153.724L153.792 205.183ZM153.491 207.021L152.965 207.001C152.969 206.495 153.045 206.028 153.19 205.6C153.336 205.167 153.541 204.791 153.806 204.472C154.07 204.153 154.384 203.907 154.749 203.733C155.118 203.556 155.526 203.467 155.973 203.467C156.337 203.467 156.665 203.517 156.957 203.617C157.249 203.713 157.497 203.868 157.702 204.082C157.912 204.296 158.071 204.574 158.181 204.916C158.29 205.253 158.345 205.666 158.345 206.153V211H157.073V206.14C157.073 205.752 157.016 205.442 156.902 205.21C156.788 204.973 156.622 204.802 156.403 204.697C156.185 204.588 155.916 204.533 155.597 204.533C155.282 204.533 154.995 204.599 154.735 204.731C154.48 204.864 154.259 205.046 154.072 205.278C153.89 205.511 153.746 205.777 153.642 206.078C153.541 206.374 153.491 206.689 153.491 207.021ZM163.362 203.604V204.574H159.363V203.604H163.362ZM160.717 201.806H161.981V209.168C161.981 209.419 162.02 209.608 162.098 209.735C162.175 209.863 162.275 209.947 162.398 209.988C162.521 210.029 162.654 210.05 162.795 210.05C162.9 210.05 163.009 210.041 163.123 210.022C163.242 210 163.33 209.981 163.39 209.968L163.396 211C163.296 211.032 163.164 211.062 163 211.089C162.84 211.121 162.647 211.137 162.419 211.137C162.109 211.137 161.824 211.075 161.564 210.952C161.305 210.829 161.097 210.624 160.942 210.337C160.792 210.045 160.717 209.653 160.717 209.161V201.806ZM169.152 209.038C169.152 208.856 169.111 208.687 169.029 208.532C168.952 208.373 168.79 208.229 168.544 208.102C168.302 207.969 167.938 207.855 167.45 207.76C167.04 207.673 166.669 207.571 166.336 207.452C166.008 207.334 165.728 207.19 165.495 207.021C165.267 206.853 165.092 206.655 164.969 206.427C164.846 206.199 164.784 205.932 164.784 205.627C164.784 205.335 164.848 205.06 164.976 204.8C165.108 204.54 165.292 204.31 165.529 204.109C165.771 203.909 166.06 203.752 166.397 203.638C166.735 203.524 167.111 203.467 167.525 203.467C168.118 203.467 168.624 203.572 169.043 203.781C169.462 203.991 169.784 204.271 170.007 204.622C170.23 204.968 170.342 205.354 170.342 205.777H169.077C169.077 205.572 169.016 205.374 168.893 205.183C168.774 204.987 168.599 204.825 168.366 204.697C168.138 204.57 167.858 204.506 167.525 204.506C167.174 204.506 166.89 204.561 166.671 204.67C166.457 204.775 166.299 204.909 166.199 205.073C166.104 205.237 166.056 205.41 166.056 205.593C166.056 205.729 166.078 205.853 166.124 205.962C166.174 206.067 166.261 206.165 166.384 206.256C166.507 206.342 166.68 206.424 166.903 206.502C167.127 206.579 167.411 206.657 167.758 206.734C168.364 206.871 168.863 207.035 169.255 207.227C169.647 207.418 169.938 207.653 170.13 207.931C170.321 208.209 170.417 208.546 170.417 208.942C170.417 209.266 170.349 209.562 170.212 209.831C170.08 210.1 169.886 210.332 169.631 210.528C169.38 210.72 169.079 210.87 168.729 210.979C168.382 211.084 167.993 211.137 167.56 211.137C166.908 211.137 166.356 211.021 165.905 210.788C165.454 210.556 165.112 210.255 164.88 209.886C164.647 209.517 164.531 209.127 164.531 208.717H165.803C165.821 209.063 165.921 209.339 166.104 209.544C166.286 209.744 166.509 209.888 166.773 209.975C167.038 210.057 167.3 210.098 167.56 210.098C167.906 210.098 168.195 210.052 168.428 209.961C168.665 209.87 168.845 209.744 168.968 209.585C169.091 209.425 169.152 209.243 169.152 209.038ZM176.925 203.604V211H175.653V203.604H176.925ZM175.558 201.642C175.558 201.437 175.619 201.263 175.742 201.122C175.87 200.981 176.057 200.91 176.303 200.91C176.544 200.91 176.729 200.981 176.856 201.122C176.989 201.263 177.055 201.437 177.055 201.642C177.055 201.838 176.989 202.006 176.856 202.147C176.729 202.284 176.544 202.353 176.303 202.353C176.057 202.353 175.87 202.284 175.742 202.147C175.619 202.006 175.558 201.838 175.558 201.642ZM180.22 205.183V211H178.955V203.604H180.151L180.22 205.183ZM179.919 207.021L179.393 207.001C179.397 206.495 179.472 206.028 179.618 205.6C179.764 205.167 179.969 204.791 180.233 204.472C180.498 204.153 180.812 203.907 181.177 203.733C181.546 203.556 181.954 203.467 182.4 203.467C182.765 203.467 183.093 203.517 183.385 203.617C183.676 203.713 183.925 203.868 184.13 204.082C184.34 204.296 184.499 204.574 184.608 204.916C184.718 205.253 184.772 205.666 184.772 206.153V211H183.501V206.14C183.501 205.752 183.444 205.442 183.33 205.21C183.216 204.973 183.05 204.802 182.831 204.697C182.612 204.588 182.343 204.533 182.024 204.533C181.71 204.533 181.423 204.599 181.163 204.731C180.908 204.864 180.687 205.046 180.5 205.278C180.318 205.511 180.174 205.777 180.069 206.078C179.969 206.374 179.919 206.689 179.919 207.021ZM193.263 203.604V204.574H189.264V203.604H193.263ZM190.617 201.806H191.882V209.168C191.882 209.419 191.921 209.608 191.998 209.735C192.076 209.863 192.176 209.947 192.299 209.988C192.422 210.029 192.554 210.05 192.695 210.05C192.8 210.05 192.91 210.041 193.023 210.022C193.142 210 193.231 209.981 193.29 209.968L193.297 211C193.197 211.032 193.064 211.062 192.9 211.089C192.741 211.121 192.547 211.137 192.319 211.137C192.009 211.137 191.725 211.075 191.465 210.952C191.205 210.829 190.998 210.624 190.843 210.337C190.692 210.045 190.617 209.653 190.617 209.161V201.806ZM196.011 200.5V211H194.746V200.5H196.011ZM195.71 207.021L195.184 207.001C195.188 206.495 195.263 206.028 195.409 205.6C195.555 205.167 195.76 204.791 196.024 204.472C196.289 204.153 196.603 203.907 196.968 203.733C197.337 203.556 197.745 203.467 198.191 203.467C198.556 203.467 198.884 203.517 199.176 203.617C199.467 203.713 199.716 203.868 199.921 204.082C200.131 204.296 200.29 204.574 200.399 204.916C200.509 205.253 200.563 205.666 200.563 206.153V211H199.292V206.14C199.292 205.752 199.235 205.442 199.121 205.21C199.007 204.973 198.841 204.802 198.622 204.697C198.403 204.588 198.134 204.533 197.815 204.533C197.501 204.533 197.214 204.599 196.954 204.731C196.699 204.864 196.478 205.046 196.291 205.278C196.109 205.511 195.965 205.777 195.86 206.078C195.76 206.374 195.71 206.689 195.71 207.021ZM203.831 203.604V211H202.56V203.604H203.831ZM202.464 201.642C202.464 201.437 202.525 201.263 202.648 201.122C202.776 200.981 202.963 200.91 203.209 200.91C203.451 200.91 203.635 200.981 203.763 201.122C203.895 201.263 203.961 201.437 203.961 201.642C203.961 201.838 203.895 202.006 203.763 202.147C203.635 202.284 203.451 202.353 203.209 202.353C202.963 202.353 202.776 202.284 202.648 202.147C202.525 202.006 202.464 201.838 202.464 201.642ZM210.168 209.038C210.168 208.856 210.127 208.687 210.045 208.532C209.967 208.373 209.806 208.229 209.56 208.102C209.318 207.969 208.953 207.855 208.466 207.76C208.056 207.673 207.684 207.571 207.352 207.452C207.023 207.334 206.743 207.19 206.511 207.021C206.283 206.853 206.107 206.655 205.984 206.427C205.861 206.199 205.8 205.932 205.8 205.627C205.8 205.335 205.864 205.06 205.991 204.8C206.123 204.54 206.308 204.31 206.545 204.109C206.786 203.909 207.076 203.752 207.413 203.638C207.75 203.524 208.126 203.467 208.541 203.467C209.133 203.467 209.639 203.572 210.059 203.781C210.478 203.991 210.799 204.271 211.022 204.622C211.246 204.968 211.357 205.354 211.357 205.777H210.093C210.093 205.572 210.031 205.374 209.908 205.183C209.79 204.987 209.614 204.825 209.382 204.697C209.154 204.57 208.874 204.506 208.541 204.506C208.19 204.506 207.905 204.561 207.687 204.67C207.472 204.775 207.315 204.909 207.215 205.073C207.119 205.237 207.071 205.41 207.071 205.593C207.071 205.729 207.094 205.853 207.14 205.962C207.19 206.067 207.276 206.165 207.399 206.256C207.522 206.342 207.696 206.424 207.919 206.502C208.142 206.579 208.427 206.657 208.773 206.734C209.38 206.871 209.879 207.035 210.271 207.227C210.662 207.418 210.954 207.653 211.146 207.931C211.337 208.209 211.433 208.546 211.433 208.942C211.433 209.266 211.364 209.562 211.228 209.831C211.095 210.1 210.902 210.332 210.646 210.528C210.396 210.72 210.095 210.87 209.744 210.979C209.398 211.084 209.008 211.137 208.575 211.137C207.924 211.137 207.372 211.021 206.921 210.788C206.47 210.556 206.128 210.255 205.896 209.886C205.663 209.517 205.547 209.127 205.547 208.717H206.818C206.837 209.063 206.937 209.339 207.119 209.544C207.301 209.744 207.525 209.888 207.789 209.975C208.053 210.057 208.315 210.098 208.575 210.098C208.922 210.098 209.211 210.052 209.443 209.961C209.68 209.87 209.86 209.744 209.983 209.585C210.106 209.425 210.168 209.243 210.168 209.038ZM221.358 203.604H222.507V210.843C222.507 211.494 222.375 212.05 222.11 212.511C221.846 212.971 221.477 213.32 221.003 213.557C220.534 213.798 219.991 213.919 219.376 213.919C219.121 213.919 218.82 213.878 218.474 213.796C218.132 213.718 217.795 213.584 217.462 213.393C217.134 213.206 216.858 212.953 216.635 212.634L217.298 211.882C217.608 212.256 217.931 212.515 218.269 212.661C218.61 212.807 218.948 212.88 219.28 212.88C219.681 212.88 220.028 212.805 220.319 212.654C220.611 212.504 220.837 212.281 220.996 211.984C221.16 211.693 221.242 211.333 221.242 210.904V205.23L221.358 203.604ZM216.266 207.384V207.24C216.266 206.675 216.332 206.162 216.464 205.702C216.601 205.237 216.794 204.839 217.045 204.506C217.3 204.173 217.608 203.918 217.968 203.74C218.328 203.558 218.733 203.467 219.185 203.467C219.649 203.467 220.055 203.549 220.401 203.713C220.752 203.872 221.049 204.107 221.29 204.417C221.536 204.722 221.73 205.091 221.871 205.524C222.012 205.957 222.11 206.447 222.165 206.994V207.623C222.115 208.165 222.017 208.653 221.871 209.086C221.73 209.519 221.536 209.888 221.29 210.193C221.049 210.499 220.752 210.733 220.401 210.897C220.05 211.057 219.64 211.137 219.171 211.137C218.729 211.137 218.328 211.043 217.968 210.856C217.612 210.67 217.307 210.408 217.052 210.07C216.797 209.733 216.601 209.337 216.464 208.881C216.332 208.421 216.266 207.922 216.266 207.384ZM217.53 207.24V207.384C217.53 207.753 217.567 208.099 217.64 208.423C217.717 208.746 217.833 209.031 217.988 209.277C218.148 209.523 218.351 209.717 218.597 209.858C218.843 209.995 219.137 210.063 219.479 210.063C219.898 210.063 220.244 209.975 220.518 209.797C220.791 209.619 221.007 209.384 221.167 209.093C221.331 208.801 221.459 208.484 221.55 208.143V206.495C221.5 206.244 221.422 206.003 221.317 205.771C221.217 205.534 221.085 205.324 220.921 205.142C220.761 204.955 220.563 204.807 220.326 204.697C220.089 204.588 219.811 204.533 219.492 204.533C219.146 204.533 218.847 204.606 218.597 204.752C218.351 204.893 218.148 205.089 217.988 205.34C217.833 205.586 217.717 205.873 217.64 206.201C217.567 206.525 217.53 206.871 217.53 207.24ZM225.692 204.766V211H224.428V203.604H225.658L225.692 204.766ZM228.003 203.562L227.996 204.738C227.891 204.715 227.791 204.702 227.695 204.697C227.604 204.688 227.499 204.684 227.381 204.684C227.089 204.684 226.832 204.729 226.608 204.82C226.385 204.911 226.196 205.039 226.041 205.203C225.886 205.367 225.763 205.563 225.672 205.791C225.585 206.014 225.528 206.26 225.501 206.529L225.146 206.734C225.146 206.288 225.189 205.868 225.275 205.477C225.367 205.085 225.506 204.738 225.692 204.438C225.879 204.132 226.116 203.895 226.403 203.727C226.695 203.553 227.041 203.467 227.442 203.467C227.534 203.467 227.638 203.478 227.757 203.501C227.875 203.519 227.957 203.54 228.003 203.562ZM228.7 207.384V207.227C228.7 206.693 228.778 206.199 228.933 205.743C229.088 205.283 229.311 204.884 229.603 204.547C229.894 204.205 230.247 203.941 230.662 203.754C231.077 203.562 231.542 203.467 232.057 203.467C232.576 203.467 233.043 203.562 233.458 203.754C233.877 203.941 234.233 204.205 234.524 204.547C234.821 204.884 235.046 205.283 235.201 205.743C235.356 206.199 235.434 206.693 235.434 207.227V207.384C235.434 207.917 235.356 208.411 235.201 208.867C235.046 209.323 234.821 209.722 234.524 210.063C234.233 210.401 233.88 210.665 233.465 210.856C233.055 211.043 232.59 211.137 232.07 211.137C231.551 211.137 231.084 211.043 230.669 210.856C230.254 210.665 229.899 210.401 229.603 210.063C229.311 209.722 229.088 209.323 228.933 208.867C228.778 208.411 228.7 207.917 228.7 207.384ZM229.965 207.227V207.384C229.965 207.753 230.008 208.102 230.095 208.43C230.181 208.753 230.311 209.04 230.484 209.291C230.662 209.542 230.883 209.74 231.147 209.886C231.412 210.027 231.719 210.098 232.07 210.098C232.417 210.098 232.72 210.027 232.979 209.886C233.244 209.74 233.463 209.542 233.636 209.291C233.809 209.04 233.939 208.753 234.025 208.43C234.117 208.102 234.162 207.753 234.162 207.384V207.227C234.162 206.862 234.117 206.518 234.025 206.194C233.939 205.866 233.807 205.577 233.629 205.326C233.456 205.071 233.237 204.87 232.973 204.725C232.713 204.579 232.408 204.506 232.057 204.506C231.71 204.506 231.405 204.579 231.141 204.725C230.881 204.87 230.662 205.071 230.484 205.326C230.311 205.577 230.181 205.866 230.095 206.194C230.008 206.518 229.965 206.862 229.965 207.227ZM241.545 209.291V203.604H242.816V211H241.606L241.545 209.291ZM241.784 207.732L242.311 207.719C242.311 208.211 242.258 208.667 242.153 209.086C242.053 209.501 241.889 209.861 241.661 210.166C241.433 210.471 241.135 210.711 240.766 210.884C240.396 211.052 239.948 211.137 239.419 211.137C239.059 211.137 238.729 211.084 238.428 210.979C238.132 210.875 237.876 210.713 237.662 210.494C237.448 210.275 237.282 209.991 237.163 209.64C237.049 209.289 236.992 208.867 236.992 208.375V203.604H238.257V208.389C238.257 208.721 238.293 208.997 238.366 209.216C238.444 209.43 238.546 209.601 238.674 209.729C238.806 209.852 238.952 209.938 239.111 209.988C239.275 210.038 239.444 210.063 239.617 210.063C240.155 210.063 240.581 209.961 240.896 209.756C241.21 209.546 241.436 209.266 241.572 208.915C241.714 208.56 241.784 208.165 241.784 207.732ZM246.009 205.025V213.844H244.737V203.604H245.899L246.009 205.025ZM250.992 207.24V207.384C250.992 207.922 250.928 208.421 250.801 208.881C250.673 209.337 250.486 209.733 250.24 210.07C249.999 210.408 249.7 210.67 249.345 210.856C248.989 211.043 248.581 211.137 248.121 211.137C247.652 211.137 247.237 211.059 246.877 210.904C246.517 210.749 246.212 210.524 245.961 210.228C245.71 209.931 245.51 209.576 245.359 209.161C245.214 208.746 245.113 208.279 245.059 207.76V206.994C245.113 206.447 245.216 205.957 245.366 205.524C245.517 205.091 245.715 204.722 245.961 204.417C246.212 204.107 246.515 203.872 246.87 203.713C247.226 203.549 247.636 203.467 248.101 203.467C248.565 203.467 248.978 203.558 249.338 203.74C249.698 203.918 250.001 204.173 250.247 204.506C250.493 204.839 250.678 205.237 250.801 205.702C250.928 206.162 250.992 206.675 250.992 207.24ZM249.721 207.384V207.24C249.721 206.871 249.682 206.525 249.604 206.201C249.527 205.873 249.406 205.586 249.242 205.34C249.083 205.089 248.878 204.893 248.627 204.752C248.376 204.606 248.078 204.533 247.731 204.533C247.412 204.533 247.134 204.588 246.897 204.697C246.665 204.807 246.467 204.955 246.303 205.142C246.139 205.324 246.004 205.534 245.899 205.771C245.799 206.003 245.724 206.244 245.674 206.495V208.266C245.765 208.585 245.893 208.885 246.057 209.168C246.221 209.446 246.439 209.672 246.713 209.845C246.986 210.013 247.33 210.098 247.745 210.098C248.087 210.098 248.381 210.027 248.627 209.886C248.878 209.74 249.083 209.542 249.242 209.291C249.406 209.04 249.527 208.753 249.604 208.43C249.682 208.102 249.721 207.753 249.721 207.384Z" fill="#9596EB"/>
</svg>
