<svg width="312" height="312" viewBox="0 0 312 312" fill="none" xmlns="http://www.w3.org/2000/svg">
<g clip-path="url(#clip0_304_280)">
<rect width="312" height="312" fill="#F8F9FB"/>
<path fill-rule="evenodd" clip-rule="evenodd" d="M114 119C114 116.791 115.791 115 118 115H194C196.209 115 198 116.791 198 119V171C198 173.209 196.209 175 194 175H118C115.791 175 114 173.209 114 171V119ZM148.743 121H192V132H159.743L148.743 121ZM140.257 121H120V132H151.257L140.257 121ZM120 138V169H192V138H120Z" fill="#9596EB"/>
<path d="M85.6719 201.661V202.851H78.8496V201.661H85.6719ZM82.8965 198.756V206.002H81.6318V198.756H82.8965ZM96.8965 203.835H98.209C98.1406 204.464 97.9606 205.027 97.6689 205.523C97.3773 206.02 96.9648 206.414 96.4316 206.706C95.8984 206.993 95.2331 207.137 94.4355 207.137C93.8522 207.137 93.3213 207.027 92.8428 206.809C92.3688 206.59 91.9609 206.28 91.6191 205.879C91.2773 205.473 91.013 204.988 90.8262 204.423C90.6439 203.853 90.5527 203.22 90.5527 202.522V201.531C90.5527 200.834 90.6439 200.203 90.8262 199.638C91.013 199.068 91.2796 198.58 91.626 198.175C91.9769 197.769 92.3984 197.457 92.8906 197.238C93.3828 197.02 93.9365 196.91 94.5518 196.91C95.3037 196.91 95.9395 197.051 96.459 197.334C96.9785 197.617 97.3818 198.008 97.6689 198.51C97.9606 199.007 98.1406 199.583 98.209 200.239H96.8965C96.8327 199.774 96.7142 199.376 96.541 199.043C96.3678 198.706 96.1217 198.446 95.8027 198.264C95.4837 198.081 95.0667 197.99 94.5518 197.99C94.1097 197.99 93.7201 198.075 93.3828 198.243C93.0501 198.412 92.7699 198.651 92.542 198.961C92.3187 199.271 92.1501 199.642 92.0361 200.075C91.9222 200.508 91.8652 200.989 91.8652 201.518V202.522C91.8652 203.01 91.9154 203.468 92.0156 203.896C92.1204 204.325 92.2777 204.701 92.4873 205.024C92.6969 205.348 92.9635 205.603 93.2871 205.79C93.6107 205.972 93.9935 206.063 94.4355 206.063C94.9961 206.063 95.4427 205.975 95.7754 205.797C96.1081 205.619 96.3587 205.364 96.5273 205.031C96.7005 204.699 96.8236 204.3 96.8965 203.835ZM99.4805 203.384V203.227C99.4805 202.693 99.5579 202.199 99.7129 201.743C99.8678 201.283 100.091 200.884 100.383 200.547C100.674 200.205 101.028 199.941 101.442 199.754C101.857 199.562 102.322 199.467 102.837 199.467C103.356 199.467 103.824 199.562 104.238 199.754C104.658 199.941 105.013 200.205 105.305 200.547C105.601 200.884 105.826 201.283 105.981 201.743C106.136 202.199 106.214 202.693 106.214 203.227V203.384C106.214 203.917 106.136 204.411 105.981 204.867C105.826 205.323 105.601 205.722 105.305 206.063C105.013 206.401 104.66 206.665 104.245 206.856C103.835 207.043 103.37 207.137 102.851 207.137C102.331 207.137 101.864 207.043 101.449 206.856C101.035 206.665 100.679 206.401 100.383 206.063C100.091 205.722 99.8678 205.323 99.7129 204.867C99.5579 204.411 99.4805 203.917 99.4805 203.384ZM100.745 203.227V203.384C100.745 203.753 100.788 204.102 100.875 204.43C100.962 204.753 101.091 205.04 101.265 205.291C101.442 205.542 101.663 205.74 101.928 205.886C102.192 206.027 102.5 206.098 102.851 206.098C103.197 206.098 103.5 206.027 103.76 205.886C104.024 205.74 104.243 205.542 104.416 205.291C104.589 205.04 104.719 204.753 104.806 204.43C104.897 204.102 104.942 203.753 104.942 203.384V203.227C104.942 202.862 104.897 202.518 104.806 202.194C104.719 201.866 104.587 201.577 104.409 201.326C104.236 201.071 104.017 200.87 103.753 200.725C103.493 200.579 103.188 200.506 102.837 200.506C102.491 200.506 102.185 200.579 101.921 200.725C101.661 200.87 101.442 201.071 101.265 201.326C101.091 201.577 100.962 201.866 100.875 202.194C100.788 202.518 100.745 202.862 100.745 203.227ZM109.064 201.183V207H107.8V199.604H108.996L109.064 201.183ZM108.764 203.021L108.237 203.001C108.242 202.495 108.317 202.028 108.463 201.6C108.609 201.167 108.814 200.791 109.078 200.472C109.342 200.153 109.657 199.907 110.021 199.733C110.391 199.556 110.799 199.467 111.245 199.467C111.61 199.467 111.938 199.517 112.229 199.617C112.521 199.713 112.77 199.868 112.975 200.082C113.184 200.296 113.344 200.574 113.453 200.916C113.562 201.253 113.617 201.666 113.617 202.153V207H112.346V202.14C112.346 201.752 112.289 201.442 112.175 201.21C112.061 200.973 111.895 200.802 111.676 200.697C111.457 200.588 111.188 200.533 110.869 200.533C110.555 200.533 110.268 200.599 110.008 200.731C109.753 200.864 109.532 201.046 109.345 201.278C109.162 201.511 109.019 201.777 108.914 202.078C108.814 202.374 108.764 202.689 108.764 203.021ZM116.803 201.183V207H115.538V199.604H116.734L116.803 201.183ZM116.502 203.021L115.976 203.001C115.98 202.495 116.055 202.028 116.201 201.6C116.347 201.167 116.552 200.791 116.816 200.472C117.081 200.153 117.395 199.907 117.76 199.733C118.129 199.556 118.537 199.467 118.983 199.467C119.348 199.467 119.676 199.517 119.968 199.617C120.259 199.713 120.508 199.868 120.713 200.082C120.923 200.296 121.082 200.574 121.191 200.916C121.301 201.253 121.355 201.666 121.355 202.153V207H120.084V202.14C120.084 201.752 120.027 201.442 119.913 201.21C119.799 200.973 119.633 200.802 119.414 200.697C119.195 200.588 118.926 200.533 118.607 200.533C118.293 200.533 118.006 200.599 117.746 200.731C117.491 200.864 117.27 201.046 117.083 201.278C116.901 201.511 116.757 201.777 116.652 202.078C116.552 202.374 116.502 202.689 116.502 203.021ZM126.346 207.137C125.831 207.137 125.364 207.05 124.944 206.877C124.53 206.699 124.172 206.451 123.871 206.132C123.575 205.813 123.347 205.435 123.188 204.997C123.028 204.56 122.948 204.081 122.948 203.562V203.274C122.948 202.673 123.037 202.137 123.215 201.668C123.393 201.194 123.634 200.793 123.939 200.465C124.245 200.137 124.591 199.888 124.979 199.72C125.366 199.551 125.767 199.467 126.182 199.467C126.71 199.467 127.166 199.558 127.549 199.74C127.936 199.923 128.253 200.178 128.499 200.506C128.745 200.829 128.927 201.212 129.046 201.654C129.164 202.092 129.224 202.57 129.224 203.09V203.657H123.7V202.625H127.959V202.529C127.941 202.201 127.872 201.882 127.754 201.572C127.64 201.262 127.458 201.007 127.207 200.807C126.956 200.606 126.615 200.506 126.182 200.506C125.895 200.506 125.63 200.567 125.389 200.69C125.147 200.809 124.94 200.987 124.767 201.224C124.593 201.461 124.459 201.75 124.363 202.092C124.268 202.434 124.22 202.828 124.22 203.274V203.562C124.22 203.912 124.268 204.243 124.363 204.553C124.464 204.858 124.607 205.127 124.794 205.359C124.985 205.592 125.215 205.774 125.484 205.906C125.758 206.038 126.068 206.104 126.414 206.104C126.861 206.104 127.239 206.013 127.549 205.831C127.859 205.649 128.13 205.405 128.362 205.1L129.128 205.708C128.968 205.95 128.766 206.18 128.52 206.398C128.273 206.617 127.97 206.795 127.61 206.932C127.255 207.068 126.833 207.137 126.346 207.137ZM133.66 206.098C133.961 206.098 134.239 206.036 134.494 205.913C134.749 205.79 134.959 205.621 135.123 205.407C135.287 205.188 135.381 204.94 135.403 204.662H136.606C136.584 205.1 136.436 205.507 136.162 205.886C135.893 206.259 135.54 206.562 135.103 206.795C134.665 207.023 134.184 207.137 133.66 207.137C133.104 207.137 132.619 207.039 132.204 206.843C131.794 206.647 131.452 206.378 131.179 206.036C130.91 205.694 130.707 205.302 130.57 204.86C130.438 204.414 130.372 203.942 130.372 203.445V203.158C130.372 202.661 130.438 202.192 130.57 201.75C130.707 201.303 130.91 200.909 131.179 200.567C131.452 200.226 131.794 199.957 132.204 199.761C132.619 199.565 133.104 199.467 133.66 199.467C134.239 199.467 134.745 199.585 135.178 199.822C135.611 200.055 135.95 200.374 136.196 200.779C136.447 201.18 136.584 201.636 136.606 202.146H135.403C135.381 201.841 135.294 201.565 135.144 201.319C134.998 201.073 134.797 200.877 134.542 200.731C134.291 200.581 133.997 200.506 133.66 200.506C133.273 200.506 132.947 200.583 132.683 200.738C132.423 200.889 132.215 201.094 132.061 201.354C131.91 201.609 131.801 201.894 131.732 202.208C131.669 202.518 131.637 202.835 131.637 203.158V203.445C131.637 203.769 131.669 204.088 131.732 204.402C131.796 204.717 131.903 205.002 132.054 205.257C132.209 205.512 132.416 205.717 132.676 205.872C132.94 206.022 133.268 206.098 133.66 206.098ZM141.125 199.604V200.574H137.126V199.604H141.125ZM138.479 197.806H139.744V205.168C139.744 205.419 139.783 205.608 139.86 205.735C139.938 205.863 140.038 205.947 140.161 205.988C140.284 206.029 140.416 206.05 140.558 206.05C140.662 206.05 140.772 206.041 140.886 206.022C141.004 206 141.093 205.981 141.152 205.968L141.159 207C141.059 207.032 140.927 207.062 140.763 207.089C140.603 207.121 140.41 207.137 140.182 207.137C139.872 207.137 139.587 207.075 139.327 206.952C139.067 206.829 138.86 206.624 138.705 206.337C138.555 206.045 138.479 205.653 138.479 205.161V197.806ZM151.967 197.047H153.279V203.78C153.279 204.528 153.113 205.15 152.78 205.646C152.448 206.143 152.006 206.517 151.454 206.768C150.907 207.014 150.312 207.137 149.67 207.137C148.995 207.137 148.385 207.014 147.838 206.768C147.296 206.517 146.865 206.143 146.546 205.646C146.231 205.15 146.074 204.528 146.074 203.78V197.047H147.38V203.78C147.38 204.3 147.476 204.728 147.667 205.065C147.858 205.403 148.125 205.653 148.467 205.817C148.813 205.981 149.214 206.063 149.67 206.063C150.13 206.063 150.531 205.981 150.873 205.817C151.219 205.653 151.488 205.403 151.68 205.065C151.871 204.728 151.967 204.3 151.967 203.78V197.047ZM155.351 197.047H158.646C159.393 197.047 160.024 197.161 160.539 197.389C161.059 197.617 161.453 197.954 161.722 198.4C161.995 198.842 162.132 199.387 162.132 200.034C162.132 200.49 162.038 200.907 161.852 201.285C161.669 201.659 161.405 201.978 161.059 202.242C160.717 202.502 160.307 202.696 159.828 202.823L159.459 202.967H156.362L156.349 201.894H158.687C159.16 201.894 159.555 201.812 159.869 201.647C160.184 201.479 160.421 201.253 160.58 200.971C160.74 200.688 160.819 200.376 160.819 200.034C160.819 199.651 160.744 199.316 160.594 199.029C160.443 198.742 160.206 198.521 159.883 198.366C159.564 198.207 159.151 198.127 158.646 198.127H156.67V207H155.351V197.047ZM161.168 207L158.748 202.488L160.122 202.481L162.576 206.918V207H161.168ZM170.014 205.927V207H165.037V205.927H170.014ZM165.297 197.047V207H163.978V197.047H165.297ZM177.902 199.604V200.574H173.903V199.604H177.902ZM175.257 197.806H176.521V205.168C176.521 205.419 176.56 205.608 176.638 205.735C176.715 205.863 176.815 205.947 176.938 205.988C177.062 206.029 177.194 206.05 177.335 206.05C177.44 206.05 177.549 206.041 177.663 206.022C177.782 206 177.87 205.981 177.93 205.968L177.937 207C177.836 207.032 177.704 207.062 177.54 207.089C177.381 207.121 177.187 207.137 176.959 207.137C176.649 207.137 176.364 207.075 176.104 206.952C175.845 206.829 175.637 206.624 175.482 206.337C175.332 206.045 175.257 205.653 175.257 205.161V197.806ZM178.914 203.384V203.227C178.914 202.693 178.992 202.199 179.146 201.743C179.301 201.283 179.525 200.884 179.816 200.547C180.108 200.205 180.461 199.941 180.876 199.754C181.291 199.562 181.756 199.467 182.271 199.467C182.79 199.467 183.257 199.562 183.672 199.754C184.091 199.941 184.447 200.205 184.738 200.547C185.035 200.884 185.26 201.283 185.415 201.743C185.57 202.199 185.647 202.693 185.647 203.227V203.384C185.647 203.917 185.57 204.411 185.415 204.867C185.26 205.323 185.035 205.722 184.738 206.063C184.447 206.401 184.093 206.665 183.679 206.856C183.269 207.043 182.804 207.137 182.284 207.137C181.765 207.137 181.298 207.043 180.883 206.856C180.468 206.665 180.113 206.401 179.816 206.063C179.525 205.722 179.301 205.323 179.146 204.867C178.992 204.411 178.914 203.917 178.914 203.384ZM180.179 203.227V203.384C180.179 203.753 180.222 204.102 180.309 204.43C180.395 204.753 180.525 205.04 180.698 205.291C180.876 205.542 181.097 205.74 181.361 205.886C181.626 206.027 181.933 206.098 182.284 206.098C182.631 206.098 182.934 206.027 183.193 205.886C183.458 205.74 183.676 205.542 183.85 205.291C184.023 205.04 184.153 204.753 184.239 204.43C184.33 204.102 184.376 203.753 184.376 203.384V203.227C184.376 202.862 184.33 202.518 184.239 202.194C184.153 201.866 184.021 201.577 183.843 201.326C183.67 201.071 183.451 200.87 183.187 200.725C182.927 200.579 182.621 200.506 182.271 200.506C181.924 200.506 181.619 200.579 181.354 200.725C181.095 200.87 180.876 201.071 180.698 201.326C180.525 201.577 180.395 201.866 180.309 202.194C180.222 202.518 180.179 202.862 180.179 203.227ZM195.368 205.564V196.5H196.64V207H195.478L195.368 205.564ZM190.392 203.384V203.24C190.392 202.675 190.46 202.162 190.597 201.702C190.738 201.237 190.936 200.839 191.191 200.506C191.451 200.173 191.759 199.918 192.114 199.74C192.474 199.558 192.875 199.467 193.317 199.467C193.782 199.467 194.188 199.549 194.534 199.713C194.885 199.872 195.181 200.107 195.423 200.417C195.669 200.722 195.863 201.091 196.004 201.524C196.145 201.957 196.243 202.447 196.298 202.994V203.623C196.248 204.165 196.15 204.653 196.004 205.086C195.863 205.519 195.669 205.888 195.423 206.193C195.181 206.499 194.885 206.733 194.534 206.897C194.183 207.057 193.773 207.137 193.304 207.137C192.871 207.137 192.474 207.043 192.114 206.856C191.759 206.67 191.451 206.408 191.191 206.07C190.936 205.733 190.738 205.337 190.597 204.881C190.46 204.421 190.392 203.922 190.392 203.384ZM191.663 203.24V203.384C191.663 203.753 191.7 204.099 191.772 204.423C191.85 204.746 191.968 205.031 192.128 205.277C192.287 205.523 192.49 205.717 192.736 205.858C192.982 205.995 193.276 206.063 193.618 206.063C194.037 206.063 194.382 205.975 194.65 205.797C194.924 205.619 195.143 205.384 195.307 205.093C195.471 204.801 195.598 204.484 195.689 204.143V202.495C195.635 202.244 195.555 202.003 195.45 201.771C195.35 201.534 195.218 201.324 195.054 201.142C194.894 200.955 194.696 200.807 194.459 200.697C194.227 200.588 193.951 200.533 193.632 200.533C193.285 200.533 192.987 200.606 192.736 200.752C192.49 200.893 192.287 201.089 192.128 201.34C191.968 201.586 191.85 201.873 191.772 202.201C191.7 202.525 191.663 202.871 191.663 203.24ZM199.982 199.604V207H198.711V199.604H199.982ZM198.615 197.642C198.615 197.437 198.677 197.263 198.8 197.122C198.927 196.981 199.114 196.91 199.36 196.91C199.602 196.91 199.786 196.981 199.914 197.122C200.046 197.263 200.112 197.437 200.112 197.642C200.112 197.838 200.046 198.006 199.914 198.147C199.786 198.284 199.602 198.353 199.36 198.353C199.114 198.353 198.927 198.284 198.8 198.147C198.677 198.006 198.615 197.838 198.615 197.642ZM206.319 205.038C206.319 204.856 206.278 204.687 206.196 204.532C206.119 204.373 205.957 204.229 205.711 204.102C205.469 203.969 205.105 203.855 204.617 203.76C204.207 203.673 203.836 203.571 203.503 203.452C203.175 203.334 202.895 203.19 202.662 203.021C202.434 202.853 202.259 202.655 202.136 202.427C202.013 202.199 201.951 201.932 201.951 201.627C201.951 201.335 202.015 201.06 202.143 200.8C202.275 200.54 202.459 200.31 202.696 200.109C202.938 199.909 203.227 199.752 203.564 199.638C203.902 199.524 204.278 199.467 204.692 199.467C205.285 199.467 205.791 199.572 206.21 199.781C206.629 199.991 206.951 200.271 207.174 200.622C207.397 200.968 207.509 201.354 207.509 201.777H206.244C206.244 201.572 206.183 201.374 206.06 201.183C205.941 200.987 205.766 200.825 205.533 200.697C205.305 200.57 205.025 200.506 204.692 200.506C204.341 200.506 204.057 200.561 203.838 200.67C203.624 200.775 203.466 200.909 203.366 201.073C203.271 201.237 203.223 201.41 203.223 201.593C203.223 201.729 203.245 201.853 203.291 201.962C203.341 202.067 203.428 202.165 203.551 202.256C203.674 202.342 203.847 202.424 204.07 202.502C204.294 202.579 204.578 202.657 204.925 202.734C205.531 202.871 206.03 203.035 206.422 203.227C206.814 203.418 207.105 203.653 207.297 203.931C207.488 204.209 207.584 204.546 207.584 204.942C207.584 205.266 207.516 205.562 207.379 205.831C207.247 206.1 207.053 206.332 206.798 206.528C206.547 206.72 206.246 206.87 205.896 206.979C205.549 207.084 205.16 207.137 204.727 207.137C204.075 207.137 203.523 207.021 203.072 206.788C202.621 206.556 202.279 206.255 202.047 205.886C201.814 205.517 201.698 205.127 201.698 204.717H202.97C202.988 205.063 203.088 205.339 203.271 205.544C203.453 205.744 203.676 205.888 203.94 205.975C204.205 206.057 204.467 206.098 204.727 206.098C205.073 206.098 205.362 206.052 205.595 205.961C205.832 205.87 206.012 205.744 206.135 205.585C206.258 205.425 206.319 205.243 206.319 205.038ZM210.51 201.025V209.844H209.238V199.604H210.4L210.51 201.025ZM215.493 203.24V203.384C215.493 203.922 215.429 204.421 215.302 204.881C215.174 205.337 214.987 205.733 214.741 206.07C214.5 206.408 214.201 206.67 213.846 206.856C213.49 207.043 213.082 207.137 212.622 207.137C212.153 207.137 211.738 207.059 211.378 206.904C211.018 206.749 210.713 206.524 210.462 206.228C210.211 205.931 210.011 205.576 209.86 205.161C209.715 204.746 209.614 204.279 209.56 203.76V202.994C209.614 202.447 209.717 201.957 209.867 201.524C210.018 201.091 210.216 200.722 210.462 200.417C210.713 200.107 211.016 199.872 211.371 199.713C211.727 199.549 212.137 199.467 212.602 199.467C213.066 199.467 213.479 199.558 213.839 199.74C214.199 199.918 214.502 200.173 214.748 200.506C214.994 200.839 215.179 201.237 215.302 201.702C215.429 202.162 215.493 202.675 215.493 203.24ZM214.222 203.384V203.24C214.222 202.871 214.183 202.525 214.105 202.201C214.028 201.873 213.907 201.586 213.743 201.34C213.584 201.089 213.379 200.893 213.128 200.752C212.877 200.606 212.579 200.533 212.232 200.533C211.913 200.533 211.635 200.588 211.398 200.697C211.166 200.807 210.968 200.955 210.804 201.142C210.64 201.324 210.505 201.534 210.4 201.771C210.3 202.003 210.225 202.244 210.175 202.495V204.266C210.266 204.585 210.394 204.885 210.558 205.168C210.722 205.446 210.94 205.672 211.214 205.845C211.487 206.013 211.831 206.098 212.246 206.098C212.588 206.098 212.882 206.027 213.128 205.886C213.379 205.74 213.584 205.542 213.743 205.291C213.907 205.04 214.028 204.753 214.105 204.43C214.183 204.102 214.222 203.753 214.222 203.384ZM218.48 196.5V207H217.209V196.5H218.48ZM224.872 205.735V201.928C224.872 201.636 224.813 201.383 224.694 201.169C224.58 200.95 224.407 200.782 224.175 200.663C223.942 200.545 223.655 200.485 223.313 200.485C222.994 200.485 222.714 200.54 222.473 200.649C222.236 200.759 222.049 200.902 221.912 201.08C221.78 201.258 221.714 201.449 221.714 201.654H220.449C220.449 201.39 220.518 201.128 220.654 200.868C220.791 200.608 220.987 200.374 221.242 200.164C221.502 199.95 221.812 199.781 222.172 199.658C222.536 199.531 222.942 199.467 223.389 199.467C223.926 199.467 224.4 199.558 224.811 199.74C225.225 199.923 225.549 200.198 225.781 200.567C226.018 200.932 226.137 201.39 226.137 201.941V205.387C226.137 205.633 226.157 205.895 226.198 206.173C226.244 206.451 226.31 206.69 226.396 206.891V207H225.077C225.013 206.854 224.963 206.66 224.927 206.419C224.89 206.173 224.872 205.945 224.872 205.735ZM225.091 202.516L225.104 203.404H223.826C223.466 203.404 223.145 203.434 222.862 203.493C222.58 203.548 222.343 203.632 222.151 203.746C221.96 203.86 221.814 204.004 221.714 204.177C221.614 204.345 221.563 204.544 221.563 204.771C221.563 205.004 221.616 205.216 221.721 205.407C221.826 205.599 221.983 205.751 222.192 205.865C222.407 205.975 222.669 206.029 222.979 206.029C223.366 206.029 223.708 205.947 224.004 205.783C224.3 205.619 224.535 205.419 224.708 205.182C224.886 204.945 224.981 204.715 224.995 204.491L225.535 205.1C225.503 205.291 225.417 205.503 225.275 205.735C225.134 205.968 224.945 206.191 224.708 206.405C224.476 206.615 224.198 206.79 223.874 206.932C223.555 207.068 223.195 207.137 222.794 207.137C222.293 207.137 221.853 207.039 221.475 206.843C221.101 206.647 220.809 206.385 220.6 206.057C220.395 205.724 220.292 205.353 220.292 204.942C220.292 204.546 220.369 204.197 220.524 203.896C220.679 203.591 220.903 203.338 221.194 203.138C221.486 202.933 221.837 202.778 222.247 202.673C222.657 202.568 223.115 202.516 223.621 202.516H225.091ZM230.095 206.234L232.152 199.604H233.506L230.539 208.142C230.471 208.324 230.38 208.52 230.266 208.729C230.156 208.944 230.015 209.146 229.842 209.338C229.669 209.529 229.459 209.684 229.213 209.803C228.971 209.926 228.682 209.987 228.345 209.987C228.244 209.987 228.117 209.974 227.962 209.946C227.807 209.919 227.698 209.896 227.634 209.878L227.627 208.853C227.663 208.857 227.72 208.862 227.798 208.866C227.88 208.875 227.937 208.88 227.969 208.88C228.256 208.88 228.5 208.841 228.7 208.764C228.901 208.691 229.069 208.565 229.206 208.388C229.347 208.215 229.468 207.975 229.568 207.67L230.095 206.234ZM228.584 199.604L230.505 205.346L230.833 206.679L229.924 207.144L227.203 199.604H228.584Z" fill="#9596EB"/>
</g>
<defs>
<clipPath id="clip0_304_280">
<rect width="312" height="312" fill="white"/>
</clipPath>
</defs>
</svg>
