<svg width="311" height="311" viewBox="0 0 311 311" fill="none" xmlns="http://www.w3.org/2000/svg">
<rect width="311" height="311" fill="#F8F9FB"/>
<path fill-rule="evenodd" clip-rule="evenodd" d="M118.54 97C115.756 97 113.5 99.2565 113.5 102.04V175.96C113.5 178.744 115.756 181 118.54 181H192.46C195.244 181 197.5 178.744 197.5 175.96V102.04C197.5 99.2565 195.244 97 192.46 97H118.54ZM157.153 126.646C161.174 121.163 168.089 115.48 179.02 115.48C181.34 115.48 183.22 117.36 183.22 119.68C183.22 122 181.34 123.88 179.02 123.88C171.471 123.88 166.836 127.647 163.927 131.614C162.449 133.629 161.449 135.667 160.82 137.212C160.508 137.978 160.294 138.606 160.162 139.027C160.096 139.237 160.05 139.394 160.024 139.489L160.012 139.534C160.009 139.545 160.006 139.555 160.004 139.563C160.002 139.572 160 139.578 159.999 139.583L159.997 139.59L159.996 139.593L159.99 139.617L159.98 139.657C157.721 139.058 156.968 138.858 156.968 138.858C156.968 138.858 159.98 139.658 159.979 139.661L159.978 139.665L159.975 139.674L159.968 139.699L159.961 139.727L159.948 139.772C159.932 139.83 159.91 139.907 159.882 140.002C159.825 140.193 159.744 140.456 159.637 140.781C159.422 141.431 159.099 142.332 158.652 143.4C157.762 145.521 156.35 148.369 154.261 151.204C150.056 156.911 142.834 162.85 131.694 162.09C129.38 161.932 127.632 159.929 127.79 157.614C127.948 155.3 129.952 153.552 132.266 153.71C139.606 154.21 144.354 150.489 147.499 146.221C149.085 144.069 150.193 141.85 150.905 140.152C151.258 139.31 151.506 138.614 151.662 138.142C151.74 137.907 151.794 137.73 151.827 137.619C151.842 137.567 151.853 137.53 151.859 137.51L151.869 137.468C151.884 137.412 151.904 137.337 151.929 137.246C151.979 137.065 152.052 136.815 152.148 136.509C152.341 135.896 152.632 135.048 153.041 134.042C153.856 132.043 155.166 129.356 157.153 126.646Z" fill="#9596EB"/>
<path d="M93.5254 205.661V206.851H86.7031V205.661H93.5254ZM90.75 202.756V210.002H89.4854V202.756H90.75ZM102.426 201.929L99.1309 211H97.7842L101.578 201.047H102.446L102.426 201.929ZM105.188 211L101.886 201.929L101.865 201.047H102.733L106.541 211H105.188ZM105.017 207.315V208.396H99.4248V207.315H105.017ZM112.345 209.564V200.5H113.616V211H112.454L112.345 209.564ZM107.368 207.384V207.24C107.368 206.675 107.437 206.162 107.573 205.702C107.715 205.237 107.913 204.839 108.168 204.506C108.428 204.173 108.735 203.918 109.091 203.74C109.451 203.558 109.852 203.467 110.294 203.467C110.759 203.467 111.164 203.549 111.511 203.713C111.862 203.872 112.158 204.107 112.399 204.417C112.646 204.722 112.839 205.091 112.98 205.524C113.122 205.957 113.22 206.447 113.274 206.994V207.623C113.224 208.165 113.126 208.653 112.98 209.086C112.839 209.519 112.646 209.888 112.399 210.193C112.158 210.499 111.862 210.733 111.511 210.897C111.16 211.057 110.75 211.137 110.28 211.137C109.847 211.137 109.451 211.043 109.091 210.856C108.735 210.67 108.428 210.408 108.168 210.07C107.913 209.733 107.715 209.337 107.573 208.881C107.437 208.421 107.368 207.922 107.368 207.384ZM108.64 207.24V207.384C108.64 207.753 108.676 208.099 108.749 208.423C108.826 208.746 108.945 209.031 109.104 209.277C109.264 209.523 109.467 209.717 109.713 209.858C109.959 209.995 110.253 210.063 110.595 210.063C111.014 210.063 111.358 209.975 111.627 209.797C111.9 209.619 112.119 209.384 112.283 209.093C112.447 208.801 112.575 208.484 112.666 208.143V206.495C112.611 206.244 112.532 206.003 112.427 205.771C112.326 205.534 112.194 205.324 112.03 205.142C111.871 204.955 111.673 204.807 111.436 204.697C111.203 204.588 110.927 204.533 110.608 204.533C110.262 204.533 109.964 204.606 109.713 204.752C109.467 204.893 109.264 205.089 109.104 205.34C108.945 205.586 108.826 205.873 108.749 206.201C108.676 206.525 108.64 206.871 108.64 207.24ZM120.247 209.564V200.5H121.519V211H120.356L120.247 209.564ZM115.271 207.384V207.24C115.271 206.675 115.339 206.162 115.476 205.702C115.617 205.237 115.815 204.839 116.07 204.506C116.33 204.173 116.638 203.918 116.993 203.74C117.353 203.558 117.754 203.467 118.196 203.467C118.661 203.467 119.067 203.549 119.413 203.713C119.764 203.872 120.06 204.107 120.302 204.417C120.548 204.722 120.742 205.091 120.883 205.524C121.024 205.957 121.122 206.447 121.177 206.994V207.623C121.127 208.165 121.029 208.653 120.883 209.086C120.742 209.519 120.548 209.888 120.302 210.193C120.06 210.499 119.764 210.733 119.413 210.897C119.062 211.057 118.652 211.137 118.183 211.137C117.75 211.137 117.353 211.043 116.993 210.856C116.638 210.67 116.33 210.408 116.07 210.07C115.815 209.733 115.617 209.337 115.476 208.881C115.339 208.421 115.271 207.922 115.271 207.384ZM116.542 207.24V207.384C116.542 207.753 116.578 208.099 116.651 208.423C116.729 208.746 116.847 209.031 117.007 209.277C117.166 209.523 117.369 209.717 117.615 209.858C117.861 209.995 118.155 210.063 118.497 210.063C118.916 210.063 119.26 209.975 119.529 209.797C119.803 209.619 120.021 209.384 120.186 209.093C120.35 208.801 120.477 208.484 120.568 208.143V206.495C120.514 206.244 120.434 206.003 120.329 205.771C120.229 205.534 120.097 205.324 119.933 205.142C119.773 204.955 119.575 204.807 119.338 204.697C119.105 204.588 118.83 204.533 118.511 204.533C118.164 204.533 117.866 204.606 117.615 204.752C117.369 204.893 117.166 205.089 117.007 205.34C116.847 205.586 116.729 205.873 116.651 206.201C116.578 206.525 116.542 206.871 116.542 207.24ZM133.188 209.927V211H128.211V209.927H133.188ZM128.471 201.047V211H127.151V201.047H128.471ZM134.172 207.384V207.227C134.172 206.693 134.249 206.199 134.404 205.743C134.559 205.283 134.783 204.884 135.074 204.547C135.366 204.205 135.719 203.941 136.134 203.754C136.549 203.562 137.013 203.467 137.528 203.467C138.048 203.467 138.515 203.562 138.93 203.754C139.349 203.941 139.704 204.205 139.996 204.547C140.292 204.884 140.518 205.283 140.673 205.743C140.828 206.199 140.905 206.693 140.905 207.227V207.384C140.905 207.917 140.828 208.411 140.673 208.867C140.518 209.323 140.292 209.722 139.996 210.063C139.704 210.401 139.351 210.665 138.937 210.856C138.526 211.043 138.062 211.137 137.542 211.137C137.022 211.137 136.555 211.043 136.141 210.856C135.726 210.665 135.37 210.401 135.074 210.063C134.783 209.722 134.559 209.323 134.404 208.867C134.249 208.411 134.172 207.917 134.172 207.384ZM135.437 207.227V207.384C135.437 207.753 135.48 208.102 135.566 208.43C135.653 208.753 135.783 209.04 135.956 209.291C136.134 209.542 136.355 209.74 136.619 209.886C136.883 210.027 137.191 210.098 137.542 210.098C137.888 210.098 138.191 210.027 138.451 209.886C138.715 209.74 138.934 209.542 139.107 209.291C139.281 209.04 139.41 208.753 139.497 208.43C139.588 208.102 139.634 207.753 139.634 207.384V207.227C139.634 206.862 139.588 206.518 139.497 206.194C139.41 205.866 139.278 205.577 139.101 205.326C138.927 205.071 138.709 204.87 138.444 204.725C138.185 204.579 137.879 204.506 137.528 204.506C137.182 204.506 136.877 204.579 136.612 204.725C136.353 204.87 136.134 205.071 135.956 205.326C135.783 205.577 135.653 205.866 135.566 206.194C135.48 206.518 135.437 206.862 135.437 207.227ZM145.588 203.604V204.574H141.589V203.604H145.588ZM142.942 201.806H144.207V209.168C144.207 209.419 144.246 209.608 144.323 209.735C144.401 209.863 144.501 209.947 144.624 209.988C144.747 210.029 144.879 210.05 145.021 210.05C145.125 210.05 145.235 210.041 145.349 210.022C145.467 210 145.556 209.981 145.615 209.968L145.622 211C145.522 211.032 145.39 211.062 145.226 211.089C145.066 211.121 144.872 211.137 144.645 211.137C144.335 211.137 144.05 211.075 143.79 210.952C143.53 210.829 143.323 210.624 143.168 210.337C143.018 210.045 142.942 209.653 142.942 209.161V201.806ZM150.168 203.604V204.574H146.169V203.604H150.168ZM147.522 201.806H148.787V209.168C148.787 209.419 148.826 209.608 148.903 209.735C148.981 209.863 149.081 209.947 149.204 209.988C149.327 210.029 149.459 210.05 149.601 210.05C149.705 210.05 149.815 210.041 149.929 210.022C150.047 210 150.136 209.981 150.195 209.968L150.202 211C150.102 211.032 149.97 211.062 149.806 211.089C149.646 211.121 149.452 211.137 149.225 211.137C148.915 211.137 148.63 211.075 148.37 210.952C148.11 210.829 147.903 210.624 147.748 210.337C147.598 210.045 147.522 209.653 147.522 209.161V201.806ZM153.025 203.604V211H151.754V203.604H153.025ZM151.658 201.642C151.658 201.437 151.72 201.263 151.843 201.122C151.97 200.981 152.157 200.91 152.403 200.91C152.645 200.91 152.829 200.981 152.957 201.122C153.089 201.263 153.155 201.437 153.155 201.642C153.155 201.838 153.089 202.006 152.957 202.147C152.829 202.284 152.645 202.353 152.403 202.353C152.157 202.353 151.97 202.284 151.843 202.147C151.72 202.006 151.658 201.838 151.658 201.642ZM158.125 211.137C157.61 211.137 157.143 211.05 156.724 210.877C156.309 210.699 155.951 210.451 155.65 210.132C155.354 209.813 155.126 209.435 154.967 208.997C154.807 208.56 154.728 208.081 154.728 207.562V207.274C154.728 206.673 154.816 206.137 154.994 205.668C155.172 205.194 155.413 204.793 155.719 204.465C156.024 204.137 156.37 203.888 156.758 203.72C157.145 203.551 157.546 203.467 157.961 203.467C158.49 203.467 158.945 203.558 159.328 203.74C159.715 203.923 160.032 204.178 160.278 204.506C160.524 204.829 160.707 205.212 160.825 205.654C160.944 206.092 161.003 206.57 161.003 207.09V207.657H155.479V206.625H159.738V206.529C159.72 206.201 159.652 205.882 159.533 205.572C159.419 205.262 159.237 205.007 158.986 204.807C158.736 204.606 158.394 204.506 157.961 204.506C157.674 204.506 157.41 204.567 157.168 204.69C156.926 204.809 156.719 204.987 156.546 205.224C156.373 205.461 156.238 205.75 156.143 206.092C156.047 206.434 155.999 206.828 155.999 207.274V207.562C155.999 207.912 156.047 208.243 156.143 208.553C156.243 208.858 156.386 209.127 156.573 209.359C156.765 209.592 156.995 209.774 157.264 209.906C157.537 210.038 157.847 210.104 158.193 210.104C158.64 210.104 159.018 210.013 159.328 209.831C159.638 209.649 159.909 209.405 160.142 209.1L160.907 209.708C160.748 209.95 160.545 210.18 160.299 210.398C160.053 210.617 159.75 210.795 159.39 210.932C159.034 211.068 158.613 211.137 158.125 211.137ZM169.049 203.604V204.574H165.05V203.604H169.049ZM166.403 201.806H167.668V209.168C167.668 209.419 167.707 209.608 167.784 209.735C167.862 209.863 167.962 209.947 168.085 209.988C168.208 210.029 168.34 210.05 168.481 210.05C168.586 210.05 168.696 210.041 168.81 210.022C168.928 210 169.017 209.981 169.076 209.968L169.083 211C168.983 211.032 168.851 211.062 168.687 211.089C168.527 211.121 168.333 211.137 168.105 211.137C167.796 211.137 167.511 211.075 167.251 210.952C166.991 210.829 166.784 210.624 166.629 210.337C166.479 210.045 166.403 209.653 166.403 209.161V201.806ZM170.061 207.384V207.227C170.061 206.693 170.138 206.199 170.293 205.743C170.448 205.283 170.671 204.884 170.963 204.547C171.255 204.205 171.608 203.941 172.022 203.754C172.437 203.562 172.902 203.467 173.417 203.467C173.937 203.467 174.404 203.562 174.818 203.754C175.238 203.941 175.593 204.205 175.885 204.547C176.181 204.884 176.407 205.283 176.562 205.743C176.716 206.199 176.794 206.693 176.794 207.227V207.384C176.794 207.917 176.716 208.411 176.562 208.867C176.407 209.323 176.181 209.722 175.885 210.063C175.593 210.401 175.24 210.665 174.825 210.856C174.415 211.043 173.95 211.137 173.431 211.137C172.911 211.137 172.444 211.043 172.029 210.856C171.615 210.665 171.259 210.401 170.963 210.063C170.671 209.722 170.448 209.323 170.293 208.867C170.138 208.411 170.061 207.917 170.061 207.384ZM171.325 207.227V207.384C171.325 207.753 171.368 208.102 171.455 208.43C171.542 208.753 171.672 209.04 171.845 209.291C172.022 209.542 172.243 209.74 172.508 209.886C172.772 210.027 173.08 210.098 173.431 210.098C173.777 210.098 174.08 210.027 174.34 209.886C174.604 209.74 174.823 209.542 174.996 209.291C175.169 209.04 175.299 208.753 175.386 208.43C175.477 208.102 175.522 207.753 175.522 207.384V207.227C175.522 206.862 175.477 206.518 175.386 206.194C175.299 205.866 175.167 205.577 174.989 205.326C174.816 205.071 174.597 204.87 174.333 204.725C174.073 204.579 173.768 204.506 173.417 204.506C173.071 204.506 172.765 204.579 172.501 204.725C172.241 204.87 172.022 205.071 171.845 205.326C171.672 205.577 171.542 205.866 171.455 206.194C171.368 206.518 171.325 206.862 171.325 207.227ZM186.515 209.564V200.5H187.786V211H186.624L186.515 209.564ZM181.538 207.384V207.24C181.538 206.675 181.606 206.162 181.743 205.702C181.884 205.237 182.083 204.839 182.338 204.506C182.598 204.173 182.905 203.918 183.261 203.74C183.621 203.558 184.022 203.467 184.464 203.467C184.929 203.467 185.334 203.549 185.681 203.713C186.032 203.872 186.328 204.107 186.569 204.417C186.815 204.722 187.009 205.091 187.15 205.524C187.292 205.957 187.39 206.447 187.444 206.994V207.623C187.394 208.165 187.296 208.653 187.15 209.086C187.009 209.519 186.815 209.888 186.569 210.193C186.328 210.499 186.032 210.733 185.681 210.897C185.33 211.057 184.92 211.137 184.45 211.137C184.017 211.137 183.621 211.043 183.261 210.856C182.905 210.67 182.598 210.408 182.338 210.07C182.083 209.733 181.884 209.337 181.743 208.881C181.606 208.421 181.538 207.922 181.538 207.384ZM182.81 207.24V207.384C182.81 207.753 182.846 208.099 182.919 208.423C182.996 208.746 183.115 209.031 183.274 209.277C183.434 209.523 183.637 209.717 183.883 209.858C184.129 209.995 184.423 210.063 184.765 210.063C185.184 210.063 185.528 209.975 185.797 209.797C186.07 209.619 186.289 209.384 186.453 209.093C186.617 208.801 186.745 208.484 186.836 208.143V206.495C186.781 206.244 186.701 206.003 186.597 205.771C186.496 205.534 186.364 205.324 186.2 205.142C186.041 204.955 185.842 204.807 185.605 204.697C185.373 204.588 185.097 204.533 184.778 204.533C184.432 204.533 184.133 204.606 183.883 204.752C183.637 204.893 183.434 205.089 183.274 205.34C183.115 205.586 182.996 205.873 182.919 206.201C182.846 206.525 182.81 206.871 182.81 207.24ZM191.129 203.604V211H189.857V203.604H191.129ZM189.762 201.642C189.762 201.437 189.823 201.263 189.946 201.122C190.074 200.981 190.261 200.91 190.507 200.91C190.748 200.91 190.933 200.981 191.061 201.122C191.193 201.263 191.259 201.437 191.259 201.642C191.259 201.838 191.193 202.006 191.061 202.147C190.933 202.284 190.748 202.353 190.507 202.353C190.261 202.353 190.074 202.284 189.946 202.147C189.823 202.006 189.762 201.838 189.762 201.642ZM197.466 209.038C197.466 208.856 197.425 208.687 197.343 208.532C197.265 208.373 197.104 208.229 196.857 208.102C196.616 207.969 196.251 207.855 195.764 207.76C195.354 207.673 194.982 207.571 194.649 207.452C194.321 207.334 194.041 207.19 193.809 207.021C193.581 206.853 193.405 206.655 193.282 206.427C193.159 206.199 193.098 205.932 193.098 205.627C193.098 205.335 193.161 205.06 193.289 204.8C193.421 204.54 193.606 204.31 193.843 204.109C194.084 203.909 194.374 203.752 194.711 203.638C195.048 203.524 195.424 203.467 195.839 203.467C196.431 203.467 196.937 203.572 197.356 203.781C197.776 203.991 198.097 204.271 198.32 204.622C198.544 204.968 198.655 205.354 198.655 205.777H197.391C197.391 205.572 197.329 205.374 197.206 205.183C197.088 204.987 196.912 204.825 196.68 204.697C196.452 204.57 196.172 204.506 195.839 204.506C195.488 204.506 195.203 204.561 194.984 204.67C194.77 204.775 194.613 204.909 194.513 205.073C194.417 205.237 194.369 205.41 194.369 205.593C194.369 205.729 194.392 205.853 194.438 205.962C194.488 206.067 194.574 206.165 194.697 206.256C194.82 206.342 194.993 206.424 195.217 206.502C195.44 206.579 195.725 206.657 196.071 206.734C196.677 206.871 197.176 207.035 197.568 207.227C197.96 207.418 198.252 207.653 198.443 207.931C198.635 208.209 198.73 208.546 198.73 208.942C198.73 209.266 198.662 209.562 198.525 209.831C198.393 210.1 198.2 210.332 197.944 210.528C197.694 210.72 197.393 210.87 197.042 210.979C196.696 211.084 196.306 211.137 195.873 211.137C195.221 211.137 194.67 211.021 194.219 210.788C193.768 210.556 193.426 210.255 193.193 209.886C192.961 209.517 192.845 209.127 192.845 208.717H194.116C194.134 209.063 194.235 209.339 194.417 209.544C194.599 209.744 194.823 209.888 195.087 209.975C195.351 210.057 195.613 210.098 195.873 210.098C196.219 210.098 196.509 210.052 196.741 209.961C196.978 209.87 197.158 209.744 197.281 209.585C197.404 209.425 197.466 209.243 197.466 209.038ZM201.656 205.025V213.844H200.385V203.604H201.547L201.656 205.025ZM206.64 207.24V207.384C206.64 207.922 206.576 208.421 206.448 208.881C206.321 209.337 206.134 209.733 205.888 210.07C205.646 210.408 205.348 210.67 204.992 210.856C204.637 211.043 204.229 211.137 203.769 211.137C203.299 211.137 202.884 211.059 202.524 210.904C202.164 210.749 201.859 210.524 201.608 210.228C201.358 209.931 201.157 209.576 201.007 209.161C200.861 208.746 200.761 208.279 200.706 207.76V206.994C200.761 206.447 200.863 205.957 201.014 205.524C201.164 205.091 201.362 204.722 201.608 204.417C201.859 204.107 202.162 203.872 202.518 203.713C202.873 203.549 203.283 203.467 203.748 203.467C204.213 203.467 204.625 203.558 204.985 203.74C205.345 203.918 205.648 204.173 205.895 204.506C206.141 204.839 206.325 205.237 206.448 205.702C206.576 206.162 206.64 206.675 206.64 207.24ZM205.368 207.384V207.24C205.368 206.871 205.329 206.525 205.252 206.201C205.174 205.873 205.054 205.586 204.89 205.34C204.73 205.089 204.525 204.893 204.274 204.752C204.024 204.606 203.725 204.533 203.379 204.533C203.06 204.533 202.782 204.588 202.545 204.697C202.312 204.807 202.114 204.955 201.95 205.142C201.786 205.324 201.652 205.534 201.547 205.771C201.447 206.003 201.371 206.244 201.321 206.495V208.266C201.412 208.585 201.54 208.885 201.704 209.168C201.868 209.446 202.087 209.672 202.36 209.845C202.634 210.013 202.978 210.098 203.393 210.098C203.734 210.098 204.028 210.027 204.274 209.886C204.525 209.74 204.73 209.542 204.89 209.291C205.054 209.04 205.174 208.753 205.252 208.43C205.329 208.102 205.368 207.753 205.368 207.384ZM209.627 200.5V211H208.355V200.5H209.627ZM216.019 209.735V205.928C216.019 205.636 215.959 205.383 215.841 205.169C215.727 204.95 215.554 204.782 215.321 204.663C215.089 204.545 214.802 204.485 214.46 204.485C214.141 204.485 213.861 204.54 213.619 204.649C213.382 204.759 213.195 204.902 213.059 205.08C212.926 205.258 212.86 205.449 212.86 205.654H211.596C211.596 205.39 211.664 205.128 211.801 204.868C211.938 204.608 212.133 204.374 212.389 204.164C212.648 203.95 212.958 203.781 213.318 203.658C213.683 203.531 214.089 203.467 214.535 203.467C215.073 203.467 215.547 203.558 215.957 203.74C216.372 203.923 216.695 204.198 216.928 204.567C217.165 204.932 217.283 205.39 217.283 205.941V209.387C217.283 209.633 217.304 209.895 217.345 210.173C217.39 210.451 217.456 210.69 217.543 210.891V211H216.224C216.16 210.854 216.11 210.66 216.073 210.419C216.037 210.173 216.019 209.945 216.019 209.735ZM216.237 206.516L216.251 207.404H214.973C214.613 207.404 214.291 207.434 214.009 207.493C213.726 207.548 213.489 207.632 213.298 207.746C213.106 207.86 212.961 208.004 212.86 208.177C212.76 208.345 212.71 208.544 212.71 208.771C212.71 209.004 212.762 209.216 212.867 209.407C212.972 209.599 213.129 209.751 213.339 209.865C213.553 209.975 213.815 210.029 214.125 210.029C214.512 210.029 214.854 209.947 215.15 209.783C215.447 209.619 215.681 209.419 215.854 209.182C216.032 208.945 216.128 208.715 216.142 208.491L216.682 209.1C216.65 209.291 216.563 209.503 216.422 209.735C216.281 209.968 216.091 210.191 215.854 210.405C215.622 210.615 215.344 210.79 215.021 210.932C214.701 211.068 214.341 211.137 213.94 211.137C213.439 211.137 212.999 211.039 212.621 210.843C212.247 210.647 211.956 210.385 211.746 210.057C211.541 209.724 211.438 209.353 211.438 208.942C211.438 208.546 211.516 208.197 211.671 207.896C211.826 207.591 212.049 207.338 212.341 207.138C212.632 206.933 212.983 206.778 213.394 206.673C213.804 206.568 214.262 206.516 214.768 206.516H216.237ZM221.241 210.234L223.299 203.604H224.652L221.686 212.142C221.617 212.324 221.526 212.52 221.412 212.729C221.303 212.944 221.161 213.146 220.988 213.338C220.815 213.529 220.605 213.684 220.359 213.803C220.118 213.926 219.828 213.987 219.491 213.987C219.391 213.987 219.263 213.974 219.108 213.946C218.953 213.919 218.844 213.896 218.78 213.878L218.773 212.853C218.81 212.857 218.867 212.862 218.944 212.866C219.026 212.875 219.083 212.88 219.115 212.88C219.402 212.88 219.646 212.841 219.847 212.764C220.047 212.691 220.216 212.565 220.353 212.388C220.494 212.215 220.615 211.975 220.715 211.67L221.241 210.234ZM219.73 203.604L221.651 209.346L221.979 210.679L221.07 211.144L218.35 203.604H219.73Z" fill="#9596EB"/>
</svg>
